<?xml version="1.0" standalone="no"?>
<!DOCTYPE svg PUBLIC "-//W3C//DTD SVG 20010904//EN"
 "http://www.w3.org/TR/2001/REC-SVG-20010904/DTD/svg10.dtd">
<svg version="1.0" xmlns="http://www.w3.org/2000/svg"
 width="696.000000pt" height="696.000000pt" viewBox="0 0 696.000000 696.000000"
 preserveAspectRatio="xMidYMid meet">

<g transform="translate(0.000000,696.000000) scale(0.100000,-0.100000)"
fill="#000000" stroke="none">
<path d="M3728 5749 c-21 -21 -33 -39 -26 -39 6 0 9 -3 6 -6 -4 -3 -16 -1 -27
5 -18 10 -21 8 -27 -14 -6 -23 -11 -25 -73 -27 -89 -3 -248 0 -348 7 -74 5
-84 4 -103 -15 -26 -26 -27 -90 -1 -114 15 -14 48 -18 187 -22 93 -3 190 -12
216 -19 31 -9 58 -11 78 -5 16 5 30 6 30 3 0 -3 6 0 14 7 8 6 12 18 9 26 -7
18 -5 18 42 -6 22 -11 47 -18 56 -15 10 3 21 0 25 -6 4 -7 3 -9 -2 -6 -6 3
-16 2 -24 -4 -10 -6 2 -8 36 -7 31 1 58 -3 68 -11 19 -16 23 -39 4 -24 -17 14
-168 27 -168 15 0 -6 30 -15 68 -21 117 -21 115 -20 102 -36 -17 -20 -10 -19
55 9 49 22 55 28 55 55 0 31 21 43 36 20 3 -6 17 -8 29 -5 13 3 33 2 45 -2 20
-8 21 -9 5 -22 -10 -8 -33 -16 -51 -17 -19 -1 -57 -14 -84 -29 -40 -22 -52
-35 -61 -65 -10 -32 -9 -40 5 -54 9 -9 16 -31 16 -49 0 -35 13 -51 44 -57 14
-3 24 -24 42 -89 20 -74 21 -86 9 -100 -26 -29 -16 -29 41 -3 33 15 82 28 120
31 41 3 63 9 61 16 -2 6 -13 12 -24 14 -17 2 -24 18 -41 85 -29 118 -29 119
41 179 34 29 64 56 65 61 2 4 26 7 54 7 27 0 66 7 85 17 34 16 35 16 60 -10
l26 -26 -38 -33 c-55 -48 -121 -140 -144 -204 -26 -68 -52 -222 -41 -243 4 -9
13 -48 19 -87 6 -39 13 -78 16 -86 5 -12 -3 -19 -27 -27 -48 -15 -163 -31
-236 -31 -96 0 -197 -19 -210 -40 -10 -16 -6 -16 61 1 79 21 254 26 290 8 20
-9 21 -9 4 5 -17 13 -14 15 40 26 32 6 65 12 73 13 19 3 26 -33 8 -44 -10 -7
-10 -9 3 -9 16 0 68 -108 82 -170 6 -24 4 -26 -28 -22 -69 8 -215 -42 -215
-74 0 -21 29 -29 43 -11 17 22 123 50 162 44 18 -3 37 -1 42 4 6 6 16 -6 27
-36 10 -25 22 -45 28 -45 6 0 7 8 3 18 -21 52 -79 217 -99 284 l-24 77 57 27
c70 34 160 125 194 196 52 107 52 234 0 350 -24 53 -24 59 -11 100 14 41 17
44 81 65 36 13 103 26 149 29 75 6 88 4 142 -20 35 -16 77 -26 105 -26 25 0
73 -7 106 -15 33 -8 69 -14 81 -15 24 0 47 40 34 60 -13 22 -2 30 41 30 38 0
39 1 39 34 0 19 -8 44 -19 57 -17 21 -27 23 -132 26 -63 2 -149 8 -192 14 -68
9 -82 8 -104 -7 -22 -13 -42 -16 -115 -12 l-88 5 0 -32 c0 -28 -13 -45 -34
-45 -2 0 -4 31 -5 69 -2 81 -12 123 -30 129 -10 3 -12 -11 -9 -65 2 -37 6 -73
9 -78 3 -6 6 -22 7 -37 1 -23 -2 -28 -21 -28 -37 0 -49 13 -32 36 18 23 19 35
3 31 -15 -3 -17 33 -3 52 7 11 7 13 -2 7 -9 -5 -13 1 -13 23 0 41 -9 61 -29
61 -20 0 -22 -41 -3 -48 7 -2 12 -8 12 -14 0 -6 -7 -7 -16 -4 -12 4 -14 1 -9
-14 5 -14 2 -20 -9 -20 -9 0 -16 6 -16 13 0 6 -11 13 -25 13 -14 1 -35 13 -46
28 -22 28 -66 35 -87 14 -8 -8 -15 -8 -24 -1 -36 29 -59 26 -98 -12 -34 -34
-43 -37 -112 -42 -74 -6 -154 9 -143 27 6 9 -42 23 -54 15 -5 -3 -36 22 -69
55 -33 33 -66 60 -73 59 -8 0 -31 -18 -51 -40z m-23 -129 c3 -5 -3 -10 -14
-10 -12 0 -21 5 -21 10 0 6 6 10 14 10 8 0 18 -4 21 -10z m46 -27 c13 -16 12
-17 -3 -4 -10 7 -18 15 -18 17 0 8 8 3 21 -13z m799 -13 c6 -11 7 -20 2 -20
-10 0 -32 21 -32 32 0 16 19 8 30 -12z m-835 0 c19 -8 19 -9 -2 -9 -12 -1 -25
4 -28 9 -7 12 2 12 30 0z m115 -5 c33 -19 21 -19 -21 0 -19 8 -27 14 -19 14 8
0 26 -6 40 -14z m1240 -5 c0 -5 -9 -6 -20 -3 -11 3 -20 9 -20 13 0 5 9 6 20 3
11 -3 20 -9 20 -13z m30 -20 c0 -5 -2 -10 -4 -10 -3 0 -8 5 -11 10 -3 6 -1 10
4 10 6 0 11 -4 11 -10z m60 -10 c0 -5 -9 -6 -20 -3 -11 3 -20 9 -20 13 0 5 9
6 20 3 11 -3 20 -9 20 -13z m50 -35 c17 -9 30 -18 30 -21 0 -4 -59 23 -69 32
-10 9 13 3 39 -11z m-133 -7 c12 -16 2 -60 -15 -66 -6 -2 -12 1 -12 7 0 6 -10
11 -23 11 -18 0 -23 5 -23 23 1 30 55 49 73 25z m-342 -17 c-11 -5 -40 -13
-65 -19 -25 -6 -53 -14 -62 -17 -14 -5 -18 -2 -18 13 0 23 21 28 115 30 35 0
44 -2 30 -7z m-165 -29 c0 -20 -8 -32 -28 -44 -28 -17 -29 -17 -57 12 -26 27
-27 30 -9 36 10 3 28 9 39 14 39 17 55 12 55 -18z m-542 -31 c-8 -14 -14 -16
-24 -7 -13 12 -1 26 24 26 9 0 10 -4 0 -19z m535 -51 c-6 -23 -19 -26 -26 -6
-5 13 5 23 25 25 3 1 4 -8 1 -19z m-27 -27 c11 -15 7 -29 -28 -95 -41 -77
-181 -268 -197 -268 -11 0 3 83 24 140 24 67 63 129 118 188 54 57 63 61 83
35z m70 -155 c33 -128 -7 -266 -105 -364 -52 -52 -144 -109 -160 -100 -8 5
-17 49 -36 169 -5 34 -2 42 54 106 66 77 122 157 171 245 l33 58 14 -25 c7
-15 20 -54 29 -89z"/>
<path d="M4512 5685 c0 -16 2 -22 5 -12 2 9 2 23 0 30 -3 6 -5 -1 -5 -18z"/>
<path d="M3530 5431 c0 -5 -3 -18 -6 -28 -6 -16 -5 -16 9 2 19 23 21 35 7 35
-5 0 -10 -4 -10 -9z"/>
<path d="M5506 5423 c-9 -22 -7 -35 3 -29 5 3 14 -1 21 -9 19 -23 40 -18 40 9
0 30 -54 55 -64 29z"/>
<path d="M1969 5277 c-94 -35 -139 -95 -147 -193 -4 -57 -2 -67 18 -89 25 -26
116 -69 129 -60 5 3 39 -2 76 -10 37 -9 75 -13 86 -10 11 4 44 3 74 0 45 -6
55 -11 55 -27 0 -18 7 -29 41 -68 14 -15 24 -16 60 -10 24 5 45 8 45 7 1 -1 4
-41 8 -89 8 -95 -7 -124 -19 -39 -5 37 -13 54 -31 65 -24 16 -81 21 -123 9
-23 -6 -24 -7 -17 -92 9 -112 13 -116 126 -116 50 0 90 -2 90 -5 0 -3 11 -77
25 -165 33 -213 34 -202 -17 -216 -52 -15 -68 -27 -50 -38 7 -4 10 -15 6 -25
-5 -13 -2 -17 12 -15 10 1 27 -2 38 -6 12 -5 29 -2 50 11 21 12 51 18 93 19
l62 0 -1 39 c0 25 -7 46 -18 55 -13 12 -24 62 -44 199 -15 100 -25 186 -22
191 3 4 -1 32 -8 62 -47 180 -47 181 -35 195 6 8 9 23 6 33 -3 14 3 23 23 31
15 6 37 29 50 52 24 44 67 68 122 68 52 1 136 24 154 42 14 13 14 22 5 51 -13
38 -40 66 -91 93 -29 16 -60 19 -190 20 -99 1 -183 7 -232 18 -42 9 -98 15
-125 15 -26 -1 -93 2 -148 5 -73 5 -110 3 -136 -7z m334 -14 c-7 -2 -21 -2
-30 0 -10 3 -4 5 12 5 17 0 24 -2 18 -5z m478 -93 c13 -10 18 -19 12 -20 -7 0
-13 5 -13 10 0 6 -6 10 -14 10 -8 0 -18 5 -21 10 -10 17 11 11 36 -10z m-781
-10 c13 -8 13 -10 -2 -10 -9 0 -20 5 -23 10 -8 13 5 13 25 0z m730 -10 c0 -10
-6 -11 -74 -16 -50 -3 -33 13 19 19 22 2 43 4 48 5 4 1 7 -2 7 -8z m-120 -16
c0 -8 -4 -12 -10 -9 -5 3 -10 10 -10 16 0 5 5 9 10 9 6 0 10 -7 10 -16z m-128
-324 c3 -20 0 -30 -9 -30 -8 0 -13 12 -13 30 0 17 4 30 9 30 5 0 11 -13 13
-30z"/>
<path d="M3816 4758 c-80 -51 -225 -142 -321 -203 -153 -97 -200 -135 -165
-135 6 0 10 7 10 15 0 9 6 12 15 9 8 -4 15 -1 15 6 0 7 7 10 17 6 10 -4 14 -4
11 0 -11 10 18 34 41 34 14 0 19 5 15 15 -5 11 -2 13 10 9 9 -3 16 -1 16 6 0
6 5 8 10 5 6 -4 9 -1 8 7 -2 7 5 12 15 12 9 -1 17 3 17 8 0 6 6 8 13 5 7 -3
19 4 26 15 7 11 19 17 27 14 8 -3 14 1 14 10 0 9 7 14 18 12 11 -2 16 3 14 13
-1 12 6 16 30 17 19 0 39 10 52 24 12 13 35 30 51 38 17 8 35 22 42 30 9 11
12 12 13 2 0 -17 30 11 30 29 0 9 4 8 15 -1 12 -10 16 -9 21 4 3 9 10 14 14
11 5 -3 17 7 28 22 25 38 34 53 29 53 -2 0 -70 -42 -151 -92z m-106 -98 c0 -5
-4 -10 -10 -10 -5 0 -10 5 -10 10 0 6 5 10 10 10 6 0 10 -4 10 -10z"/>
<path d="M4186 4824 c-52 -19 -54 -22 -9 -20 34 1 40 -3 71 -49 19 -27 32 -43
30 -35 -3 8 -11 39 -18 68 -15 57 -16 57 -74 36z"/>
<path d="M4235 4631 c-6 -11 9 -23 19 -14 9 9 7 23 -3 23 -6 0 -12 -4 -16 -9z"/>
<path d="M1368 4463 c-10 -2 -18 -8 -18 -11 0 -4 -17 -6 -39 -4 -21 2 -42 -1
-45 -7 -4 -6 -23 -11 -42 -11 -22 0 -38 -6 -45 -18 -8 -12 -20 -17 -34 -14
-15 2 -31 -4 -46 -19 -13 -13 -32 -24 -43 -24 -10 -1 -27 -11 -35 -22 -9 -11
-29 -23 -44 -27 -16 -4 -32 -17 -37 -31 -5 -14 -18 -25 -28 -25 -23 0 -42 -19
-42 -42 0 -10 -8 -21 -17 -25 -29 -10 -53 -35 -53 -55 0 -10 -6 -18 -13 -18
-20 0 -45 -31 -49 -60 -1 -14 -9 -25 -15 -25 -17 0 -46 -43 -37 -56 3 -6 -6
-21 -21 -33 -17 -14 -28 -33 -29 -52 -2 -17 -13 -41 -24 -52 -20 -20 -27 -39
-23 -69 1 -7 -7 -21 -19 -33 -13 -13 -20 -33 -20 -59 0 -25 -5 -41 -15 -45
-11 -4 -15 -20 -15 -55 0 -28 -5 -51 -11 -53 -7 -2 -12 -28 -13 -61 0 -31 -3
-57 -7 -57 -12 0 -18 -44 -8 -56 7 -8 6 -14 -1 -19 -8 -5 -8 -11 1 -21 9 -11
8 -15 -4 -20 -13 -5 -15 -16 -11 -57 3 -29 8 -55 11 -59 2 -5 -1 -8 -6 -8 -12
0 -15 -43 -5 -53 10 -10 13 -67 4 -67 -4 0 -7 -11 -7 -25 0 -14 3 -25 6 -25 4
0 6 -27 4 -60 -2 -33 1 -60 6 -60 5 0 9 -25 8 -55 -1 -31 3 -59 9 -63 6 -4 11
-29 11 -56 1 -30 6 -54 15 -60 8 -7 14 -29 14 -54 0 -30 5 -48 17 -56 9 -7 14
-15 11 -18 -10 -11 18 -98 32 -98 15 0 17 -10 14 -47 0 -12 8 -31 19 -42 12
-12 21 -26 21 -32 0 -23 33 -79 46 -79 13 0 18 -13 15 -33 -3 -16 20 -47 34
-47 9 0 15 -9 15 -23 0 -24 37 -67 58 -67 7 0 12 -8 12 -18 0 -21 29 -52 48
-52 7 0 12 -8 12 -18 0 -22 30 -52 53 -52 8 0 22 -13 30 -28 l14 -29 -56 14
c-66 15 -151 17 -151 3 0 -38 415 -186 760 -270 136 -33 270 -49 270 -33 0 14
-105 69 -188 98 -37 13 -58 24 -46 25 11 0 29 6 39 14 10 7 26 11 36 9 10 -3
32 2 50 11 18 9 42 16 54 16 12 0 30 9 39 19 10 11 25 17 36 14 12 -3 28 4 42
19 13 14 36 28 52 32 16 4 30 15 33 26 3 12 14 20 28 20 23 0 55 28 55 48 0
14 22 16 35 3 20 -19 206 -27 360 -16 86 6 91 8 123 41 36 39 38 53 16 115
-17 50 -44 238 -44 310 0 47 1 48 38 58 20 6 41 11 45 11 5 0 15 6 22 12 8 7
28 24 45 38 16 13 30 28 30 34 0 5 6 17 14 25 8 9 17 28 21 42 6 22 2 28 -34
44 -62 27 -76 48 -61 85 7 18 10 46 6 70 -3 22 -2 41 4 45 26 16 -7 124 -53
173 -53 57 -103 64 -235 32 l-83 -20 -130 40 c-72 22 -154 43 -182 46 -29 2
-63 7 -77 10 -20 4 -23 3 -12 -7 6 -7 12 -22 12 -32 0 -17 -4 -15 -22 9 -12
16 -22 30 -22 31 -1 1 -55 6 -121 12 -66 6 -144 14 -172 17 l-53 5 0 -66 c0
-43 4 -67 13 -70 6 -3 66 -10 132 -18 l120 -13 3 28 c4 36 13 35 37 -4 16 -27
20 -30 23 -14 2 10 -2 29 -9 42 -7 13 -9 27 -4 31 4 5 10 2 12 -5 3 -6 9 -10
14 -7 5 3 18 1 30 -5 17 -9 20 -19 17 -46 -4 -36 1 -41 20 -22 9 9 12 9 12 -3
0 -11 43 -22 173 -47 94 -18 180 -32 189 -32 22 0 36 -49 18 -60 -9 -6 -9 -12
0 -30 10 -18 9 -25 -2 -36 -12 -12 -38 -10 -178 16 -183 33 -207 35 -212 18
-3 -8 -11 -5 -23 10 -25 29 -57 28 -102 -3 -43 -28 -57 -24 -49 16 7 38 -8 37
-24 -1 -19 -46 -29 -45 -24 2 l3 43 -8 -38 c-4 -20 -11 -40 -14 -43 -15 -15
-36 8 -44 48 -8 39 -12 43 -38 44 -17 0 -43 6 -58 12 -31 13 -79 16 -61 4 19
-12 33 -47 25 -61 -7 -10 -17 -8 -47 8 -69 36 -70 37 -49 57 17 18 15 19 -51
31 -139 25 -194 44 -208 72 -8 14 -12 40 -9 56 2 17 -2 38 -9 48 -11 15 -17
16 -40 5 -44 -20 -47 -57 -7 -79 17 -8 17 -12 6 -24 -8 -8 -24 -11 -35 -8 -13
3 -28 -3 -41 -16 -12 -12 -25 -19 -30 -17 -5 3 -9 46 -10 95 l-2 90 43 4 43 4
-42 1 c-46 2 -48 5 -37 61 6 28 10 31 45 31 30 0 42 -6 58 -28 18 -26 19 -30
4 -44 -8 -9 -13 -22 -11 -28 2 -8 23 7 51 36 51 52 59 84 30 117 -17 19 -17
19 7 12 71 -22 310 14 310 47 0 5 -9 4 -20 -2 -11 -6 -24 -9 -28 -6 -5 3 -31
-2 -58 -10 -27 -8 -73 -13 -101 -12 l-53 3 1 55 0 55 19 -40 c10 -22 19 -46
19 -52 1 -7 5 -13 11 -13 5 0 -4 30 -20 66 -20 44 -30 82 -30 116 l0 49 75
-61 c41 -34 75 -66 75 -71 0 -6 -5 -20 -11 -32 -10 -21 -10 -21 5 -3 9 11 16
23 16 27 0 4 9 5 20 2 18 -5 20 0 20 36 0 30 12 63 45 122 25 45 45 85 45 90
0 13 18 11 24 -3 3 -7 3 -3 0 9 -3 15 10 51 42 110 26 49 49 90 51 92 6 8 93
-83 129 -135 19 -28 32 -57 29 -65 -7 -17 -69 -59 -88 -59 -8 0 -22 -9 -32
-20 -10 -11 -15 -20 -11 -20 4 0 80 46 169 102 89 56 185 112 214 125 l52 24
-25 57 c-79 180 -222 346 -386 452 -90 57 -97 64 -91 87 6 25 5 26 -31 20 -20
-3 -36 -2 -36 4 0 13 -44 11 -58 -3 -9 -9 -15 -9 -24 0 -12 12 -28 13 -60 5z
m2 -449 c22 -5 34 -15 41 -33 5 -14 14 -35 19 -46 30 -62 80 -228 72 -238 -5
-7 -26 -45 -47 -84 -20 -40 -41 -73 -46 -73 -5 0 -9 -9 -9 -20 0 -11 -3 -20
-7 -20 -8 1 -153 349 -153 367 0 14 67 66 120 94 30 15 39 24 28 27 -19 4 -66
-16 -125 -53 -42 -25 -56 -23 -30 4 10 11 10 13 0 7 -7 -4 -13 -3 -13 2 0 14
26 33 33 25 4 -3 7 3 7 15 0 30 39 40 110 26z m-130 -14 c0 -5 -5 -10 -11 -10
-5 0 -7 5 -4 10 3 6 8 10 11 10 2 0 4 -4 4 -10z m269 -30 c31 -17 67 -39 80
-49 l24 -18 -48 -87 c-26 -48 -49 -85 -51 -83 -7 7 -84 240 -84 254 0 20 17
16 79 -17z m-205 -293 c36 -87 69 -170 73 -185 3 -15 11 -30 17 -34 6 -4 7
-10 4 -13 -4 -4 -13 -2 -20 4 -7 6 -48 39 -90 73 l-78 61 -2 106 -2 106 -3
-97 c-2 -54 -6 -98 -9 -98 -10 0 -84 65 -84 74 0 14 81 136 91 136 4 0 11 9
14 21 4 12 11 17 15 13 5 -5 38 -80 74 -167z m-165 -92 c18 -36 35 -64 37 -62
2 2 -10 29 -27 60 -17 31 -28 57 -25 57 3 0 21 -14 41 -31 29 -26 35 -38 35
-71 0 -26 -4 -37 -11 -32 -8 5 -8 1 0 -14 6 -11 11 -53 11 -92 l0 -72 -51 7
c-52 7 -139 57 -139 79 0 36 76 236 89 236 3 0 21 -29 40 -65z m-98 -212 c36
-22 37 -32 2 -25 -27 5 -43 18 -43 35 0 11 9 9 41 -10z m80 -60 c16 -10 29
-23 29 -31 0 -22 -46 -65 -61 -57 -9 6 -8 10 7 16 18 7 17 8 -3 8 -14 1 -28
12 -38 31 -9 17 -18 30 -21 30 -2 0 0 -9 6 -19 15 -28 13 -31 -19 -31 -35 0
-44 10 -36 43 6 22 12 25 57 26 31 0 61 -6 79 -16z m709 -217 c0 -3 -4 -8 -10
-11 -5 -3 -10 -1 -10 4 0 6 5 11 10 11 6 0 10 -2 10 -4z m110 -10 c0 -3 -4 -8
-10 -11 -5 -3 -10 -1 -10 4 0 6 5 11 10 11 6 0 10 -2 10 -4z m661 -97 c13 -13
18 -27 14 -37 -4 -9 -9 -24 -12 -33 -4 -14 -7 -14 -38 0 -39 18 -51 41 -35 71
14 26 44 26 71 -1z m-1494 -33 c-4 -24 -1 -39 9 -47 19 -16 18 -37 -3 -42 -10
-3 -3 -5 15 -6 20 -1 32 -6 32 -15 0 -7 7 -19 15 -26 20 -17 19 -46 -2 -54
-10 -4 -26 3 -43 19 -14 14 -33 25 -41 25 -8 0 -21 6 -27 12 -10 10 -8 16 10
30 16 12 17 16 6 12 -22 -8 -23 9 -2 27 11 9 15 25 12 51 -3 32 2 43 21 47 2
1 1 -14 -2 -33z m-222 -87 c4 -6 -1 -16 -11 -24 -22 -16 -39 1 -22 22 13 16
25 17 33 2z m1545 -5 c0 -2 -11 -4 -25 -4 -14 0 -25 4 -25 9 0 4 11 6 25 3 14
-2 25 -6 25 -8z m-989 -30 c48 -25 50 -28 43 -58 -5 -17 -8 -41 -8 -53 -1 -13
-4 -23 -8 -23 -5 0 -8 -5 -8 -11 0 -6 -13 -27 -30 -45 -28 -33 -30 -33 -40
-13 -10 17 -12 229 -3 229 2 0 26 -12 54 -26z m119 -2 c0 -9 -4 -23 -8 -29 -5
-8 -8 1 -8 22 0 18 4 31 8 29 4 -3 8 -13 8 -22z m64 -21 c-2 -2 -10 2 -19 9
-12 10 -13 16 -3 28 11 13 13 11 19 -9 3 -13 4 -26 3 -28z m-255 -60 c-3 -93
-2 -102 26 -155 l29 -56 -18 -86 c-10 -47 -16 -88 -13 -90 3 -3 10 24 17 59 6
35 15 69 19 75 4 7 32 -49 66 -129 33 -77 61 -136 63 -131 1 5 -25 72 -58 148
-55 125 -61 143 -55 184 4 25 8 53 9 63 3 19 77 127 88 127 3 0 13 -14 22 -31
13 -25 13 -33 3 -44 -8 -8 -12 -27 -9 -50 4 -35 6 -37 32 -31 49 9 57 -13 37
-108 -10 -44 -25 -123 -35 -173 -11 -62 -21 -95 -32 -99 -19 -8 -163 -34 -167
-30 -2 1 -4 37 -5 79 -2 75 -2 75 -17 44 -8 -18 -15 -44 -15 -59 -1 -22 -3
-25 -14 -15 -16 16 -33 77 -22 77 5 0 11 -6 13 -12 3 -8 6 -7 6 4 1 9 -3 20
-9 23 -5 3 -10 44 -10 91 0 69 3 84 16 84 8 0 13 4 10 9 -3 5 1 14 8 21 12 9
15 5 19 -22 4 -29 4 -28 4 7 0 23 3 46 7 53 14 23 -6 12 -31 -18 -13 -17 -29
-28 -34 -24 -16 9 -10 40 11 59 28 26 26 63 -5 77 -14 6 -25 19 -25 28 0 10
-7 23 -15 30 -8 7 -15 17 -15 22 0 5 -9 21 -20 35 -11 15 -18 29 -15 32 4 3
10 -1 15 -9 7 -11 12 -11 23 -2 12 10 16 9 22 -5 6 -16 8 -16 16 4 5 15 14 21
24 17 10 -4 15 0 15 10 0 9 5 16 11 16 7 0 10 -33 8 -99z m1026 90 c3 -5 1
-12 -5 -16 -5 -3 -10 1 -10 9 0 18 6 21 15 7z m-876 -42 c-7 -4 -4 -9 6 -13
14 -5 13 -10 -11 -41 -32 -43 -40 -39 -24 10 10 31 14 45 19 75 1 3 5 -2 11
-10 6 -9 5 -17 -1 -21z m80 -22 c1 -5 -3 -5 -9 -2 -5 3 -10 16 -9 28 0 21 1
21 9 2 5 -11 9 -24 9 -28z m256 33 c3 -5 1 -10 -4 -10 -6 0 -11 5 -11 10 0 6
2 10 4 10 3 0 8 -4 11 -10z m48 -22 c14 -11 15 -19 5 -58 -16 -66 -24 -68 -41
-9 -12 38 -13 57 -5 66 13 16 20 16 41 1z m-950 -34 c-4 -10 -14 -20 -20 -21
-16 -4 -16 -2 -3 33 7 18 14 24 21 17 5 -5 6 -18 2 -29z m677 27 c0 -5 3 -18
6 -28 5 -16 4 -16 -10 1 -18 23 -20 36 -6 36 6 0 10 -4 10 -9z m100 -1 c0 -5
-5 -10 -11 -10 -5 0 -7 5 -4 10 3 6 8 10 11 10 2 0 4 -4 4 -10z m80 0 c8 -5
11 -12 8 -16 -10 -9 -38 3 -38 16 0 12 10 13 30 0z m560 6 c0 -3 -4 -8 -10
-11 -5 -3 -10 -1 -10 4 0 6 5 11 10 11 6 0 10 -2 10 -4z m-720 -90 c0 -15 -5
-17 -27 -11 -16 4 -29 7 -29 8 -6 8 -34 67 -34 71 0 3 20 -7 45 -22 28 -16 45
-34 45 -46z m24 59 c3 -8 1 -15 -3 -15 -5 0 -11 7 -15 15 -3 8 -1 15 3 15 5 0
11 -7 15 -15z m97 -1 c12 -14 11 -16 -5 -13 -11 2 -21 10 -24 17 -5 17 13 15
29 -4z m-45 -21 c-7 -7 -26 7 -26 19 0 6 6 6 15 -2 9 -7 13 -15 11 -17z m132
-14 c12 -49 6 -53 -75 -45 -32 3 -68 6 -80 7 -13 1 -23 6 -23 12 0 6 3 8 6 4
4 -3 13 1 22 9 8 9 24 13 35 10 12 -3 27 0 35 7 16 13 54 35 63 36 4 1 11 -17
17 -40z m-718 -101 c0 -6 -6 -5 -15 2 -8 7 -15 14 -15 16 0 2 7 1 15 -2 8 -4
15 -11 15 -16z m298 -24 c-10 -37 -11 -38 -21 -16 -8 17 -6 26 8 42 24 27 27
22 13 -26z m402 8 l23 -19 -25 -54 c-14 -30 -38 -76 -55 -103 l-31 -49 -15 29
c-8 16 -18 44 -22 62 -3 18 -11 30 -16 26 -6 -3 -7 4 -4 18 3 13 1 35 -4 48
-9 21 -10 19 -5 -15 5 -39 5 -40 -10 -15 -25 40 -18 14 10 -42 14 -28 32 -69
40 -90 13 -38 13 -39 -24 -80 -78 -88 -112 -108 -112 -65 0 12 14 83 31 157
28 128 36 165 38 183 1 4 4 6 9 5 4 0 14 1 22 5 35 13 47 15 86 16 27 1 50 -6
64 -17z m30 8 c0 -5 -4 -10 -10 -10 -5 0 -10 5 -10 10 0 6 5 10 10 10 6 0 10
-4 10 -10z m755 -14 c27 -41 -10 -86 -69 -86 -24 0 -26 4 -26 40 0 35 4 42 33
54 44 19 44 19 62 -8z m-1535 -6 c0 -5 -4 -10 -10 -10 -5 0 -10 5 -10 10 0 6
5 10 10 10 6 0 10 -4 10 -10z m84 -80 c-1 -53 2 -76 6 -60 5 14 8 44 9 67 1
40 20 70 29 44 3 -9 7 -9 19 1 14 11 15 7 9 -32 -3 -25 -6 -52 -7 -60 0 -8 -7
-30 -15 -48 -8 -18 -12 -36 -9 -41 3 -5 0 -13 -6 -17 -8 -4 -9 -3 -5 4 4 7 3
12 -3 12 -5 0 -11 -6 -14 -12 -2 -7 -4 0 -4 17 0 16 -6 31 -12 33 -6 2 -27 32
-47 68 -46 83 -37 116 31 111 18 -2 20 -9 19 -87z m1506 80 c0 -5 -4 -10 -10
-10 -5 0 -10 5 -10 10 0 6 5 10 10 10 6 0 10 -4 10 -10z m-283 -132 c-3 -8 -6
-5 -6 6 -1 11 2 17 5 13 3 -3 4 -12 1 -19z m32 -238 c14 -82 23 -153 20 -157
-2 -4 -20 -7 -39 -6 -19 2 -79 4 -132 5 -54 2 -98 6 -98 11 0 4 6 7 14 7 18 0
58 49 50 61 -3 5 9 23 26 41 21 20 30 38 27 50 -3 11 1 22 9 25 22 8 57 80 43
89 -14 8 8 24 36 24 18 0 22 -15 44 -150z m-1155 29 c-3 -5 -10 -7 -15 -3 -5
3 -7 10 -3 15 3 5 10 7 15 3 5 -3 7 -10 3 -15z m236 -79 c0 -5 -12 -10 -27 -9
l-28 1 25 8 c14 4 26 8 28 9 1 1 2 -3 2 -9z m-70 -20 c0 -5 -12 -10 -27 -9
-25 0 -26 1 -8 9 27 12 35 12 35 0z m-87 -17 c-7 -2 -21 -2 -30 0 -10 3 -4 5
12 5 17 0 24 -2 18 -5z m-396 -75 c-3 -8 -6 -5 -6 6 -1 11 2 17 5 13 3 -3 4
-12 1 -19z m267 -123 c-4 -8 -10 -15 -15 -15 -4 0 -6 7 -3 15 4 8 10 15 15 15
4 0 6 -7 3 -15z m1043 -11 c-3 -3 -12 -4 -19 -1 -8 3 -5 6 6 6 11 1 17 -2 13
-5z m-1237 -84 c0 -5 -2 -10 -4 -10 -3 0 -8 5 -11 10 -3 6 -1 10 4 10 6 0 11
-4 11 -10z"/>
<path d="M1412 3814 c-1 -61 -4 -147 -7 -190 l-4 -79 10 75 c5 41 8 127 6 190
l-3 115 -2 -111z"/>
<path d="M1337 2725 c9 -19 18 -33 21 -31 4 5 -26 66 -33 66 -3 0 3 -16 12
-35z"/>
<path d="M1362 2370 c0 -14 2 -19 5 -12 2 6 2 18 0 25 -3 6 -5 1 -5 -13z"/>
<path d="M3801 4446 c-6 -7 -14 -34 -17 -60 -7 -48 -12 -54 -32 -34 -8 8 -16
5 -31 -13 -11 -13 -20 -29 -21 -35 0 -10 68 -64 82 -64 3 0 6 26 7 57 1 67 10
120 23 146 10 20 5 22 -11 3z"/>
<path d="M3281 4416 c-9 -10 -9 -16 -1 -21 17 -10 37 12 24 25 -8 8 -15 6 -23
-4z m19 -6 c0 -5 -5 -10 -11 -10 -5 0 -7 5 -4 10 3 6 8 10 11 10 2 0 4 -4 4
-10z"/>
<path d="M3231 4386 c-8 -10 -9 -16 -1 -21 5 -3 10 1 10 10 0 9 5 13 10 10 6
-3 10 -1 10 4 0 15 -15 14 -29 -3z"/>
<path d="M3195 4360 c-3 -5 -1 -10 4 -10 6 0 11 5 11 10 0 6 -2 10 -4 10 -3 0
-8 -4 -11 -10z"/>
<path d="M4236 4354 c-5 -14 -4 -15 9 -4 17 14 19 20 6 20 -5 0 -12 -7 -15
-16z"/>
<path d="M3146 4331 c-4 -5 -2 -12 3 -15 5 -4 12 -2 15 3 4 5 2 12 -3 15 -5 4
-12 2 -15 -3z"/>
<path d="M3007 4243 c-64 -42 -115 -78 -112 -81 3 -3 26 9 50 26 25 18 49 32
53 32 5 0 14 6 21 13 6 6 15 12 19 12 4 0 21 12 37 28 16 15 35 27 42 27 7 0
13 5 13 10 0 6 -1 10 -2 10 -2 0 -56 -35 -121 -77z"/>
<path d="M3661 4253 c-12 -14 -20 -29 -19 -32 43 -89 59 -111 72 -99 15 14 11
32 -5 23 -12 -8 -11 6 1 25 8 12 10 12 10 1 0 -8 2 -12 5 -9 7 6 -23 106 -34
113 -5 3 -19 -7 -30 -22z"/>
<path d="M4781 4238 c-34 -18 -85 -55 -113 -82 -28 -28 -61 -52 -72 -53 -91
-12 -187 -48 -240 -88 -18 -14 -36 -25 -40 -25 -11 0 -136 -81 -136 -88 0 -4
25 -106 55 -227 55 -217 108 -398 147 -504 l21 -55 19 37 c15 31 22 36 36 27
38 -22 61 -49 106 -127 26 -46 50 -83 53 -83 5 0 -32 67 -65 118 -21 32 -7 27
44 -14 40 -33 44 -40 44 -81 0 -32 -3 -42 -12 -37 -10 6 -10 4 0 -7 19 -20 17
-259 -2 -259 -8 0 -18 5 -21 10 -3 6 -11 10 -17 10 -12 0 27 -37 45 -43 9 -3
9 -7 1 -18 -17 -21 -2 -51 44 -87 42 -33 54 -66 43 -110 -12 -43 -31 -39 -31
7 0 29 -6 46 -22 61 -27 25 -73 27 -75 3 -1 -10 -4 -29 -5 -42 -2 -18 4 -28
21 -37 52 -26 50 -80 -3 -87 l-31 -4 33 -1 c24 -2 32 -7 32 -20 0 -16 -17 -22
-120 -39 -66 -11 -120 -18 -120 -15 0 12 75 92 87 92 8 0 12 4 9 8 -3 5 9 26
26 48 l30 39 -41 -43 c-27 -27 -51 -42 -69 -43 -23 -2 -24 -2 -5 -6 22 -4 20
-8 -30 -68 -28 -35 -56 -64 -61 -64 -5 -1 -6 2 -3 6 4 3 3 11 -2 17 -5 6 -12
36 -16 67 l-7 57 48 -4 49 -3 -48 9 c-27 5 -51 11 -53 13 -2 2 -7 47 -11 101
l-6 96 39 1 c21 1 53 5 69 9 18 5 4 6 -37 3 l-68 -6 0 58 0 58 43 -6 c39 -5
34 1 -16 17 -16 5 -18 13 -12 58 6 46 2 63 -28 134 -42 96 -127 339 -127 360
0 9 5 12 10 9 6 -3 10 1 10 10 0 10 -5 15 -14 12 -10 -4 -28 50 -75 222 -33
125 -61 234 -61 242 -1 22 -88 -77 -145 -166 -64 -98 -97 -162 -141 -276 -36
-92 -41 -114 -24 -104 6 3 10 2 10 -3 0 -5 11 -8 25 -7 14 2 25 -1 25 -6 0 -6
5 -7 10 -4 6 4 18 1 27 -7 14 -11 16 -11 8 2 -8 13 -7 13 10 0 15 -13 16 -15
3 -18 -9 -2 -18 -12 -21 -23 -4 -17 -14 -19 -79 -19 -58 -1 -69 -3 -54 -12 11
-6 41 -8 71 -5 l53 5 5 -31 c3 -20 0 -36 -8 -42 -16 -13 -36 -103 -24 -111 15
-9 10 -24 -7 -24 -13 0 -15 -10 -11 -64 3 -40 1 -66 -5 -68 -13 -5 -17 -99 -5
-115 6 -8 5 -13 -2 -13 -14 0 -15 -57 -1 -65 8 -5 7 -11 -1 -21 -9 -11 -9 -17
0 -28 8 -10 9 -16 2 -21 -6 -3 -8 -23 -5 -48 3 -23 7 -64 8 -91 1 -27 6 -51
12 -53 5 -2 9 -31 8 -64 -1 -38 2 -62 10 -65 6 -2 12 -28 12 -60 1 -43 6 -60
24 -76 14 -13 18 -24 12 -30 -20 -20 45 -218 71 -218 18 0 30 -27 17 -35 -13
-8 21 -75 37 -75 8 0 13 -8 12 -17 -4 -28 38 -100 61 -106 16 -4 20 -11 16
-25 -7 -21 30 -76 45 -67 5 4 9 -4 9 -16 0 -21 54 -92 63 -83 7 7 32 -27 32
-44 0 -8 15 -22 32 -31 18 -9 33 -24 33 -33 0 -21 49 -60 66 -54 7 3 22 -11
33 -30 12 -19 25 -32 31 -29 14 9 50 -13 50 -30 0 -17 37 -40 64 -40 11 0 21
-6 24 -14 2 -8 0 -11 -5 -8 -5 3 -60 11 -121 17 -151 15 -191 1 -104 -36 210
-90 784 -214 994 -214 110 0 92 19 -70 73 -60 21 -97 38 -94 45 2 8 16 10 41
6 28 -4 42 -2 54 11 11 10 24 14 38 10 25 -8 75 11 83 31 4 10 14 12 30 8 19
-4 31 0 49 20 15 16 35 26 51 26 15 0 38 11 52 25 14 14 31 25 38 25 18 0 66
39 66 54 0 6 15 16 33 21 20 6 37 21 45 38 7 15 19 27 26 27 18 0 66 53 66 73
0 9 10 19 23 22 26 7 57 53 50 72 -3 7 6 17 20 22 14 6 33 28 45 54 12 25 32
61 46 81 14 20 23 46 21 56 -2 11 0 20 4 20 10 0 52 76 45 82 -3 3 7 31 21 62
14 32 25 65 24 74 -1 9 1 24 4 32 23 54 34 99 26 102 -6 2 -2 18 7 38 10 19
19 57 21 85 1 27 5 76 8 108 5 43 3 57 -7 57 -10 1 -9 4 2 13 20 15 21 187 1
210 -8 10 -9 17 -1 22 14 9 13 42 -2 48 -10 4 -10 6 0 6 15 1 5 52 -12 64 -8
5 -8 9 0 15 16 10 0 109 -20 131 -11 12 -13 20 -5 28 14 14 -8 100 -28 107
-12 5 -13 9 -4 20 15 18 -12 93 -42 117 -13 11 -17 22 -13 36 7 23 -11 72 -33
89 -8 6 -11 16 -7 22 9 15 -15 61 -53 103 -16 17 -27 38 -24 45 6 16 -27 63
-44 64 -7 0 -13 12 -13 26 0 19 -15 41 -47 73 -27 26 -48 54 -48 62 0 8 -15
21 -32 29 -21 10 -33 22 -33 36 0 25 -26 50 -60 59 -15 3 -31 18 -39 35 -9 22
-23 33 -52 40 -21 6 -39 17 -39 24 0 21 -37 49 -56 42 -18 -7 -47 11 -39 25 7
11 -46 38 -63 32 -6 -3 -26 7 -44 22 -21 18 -38 25 -53 21 -15 -4 -28 1 -41
15 -12 14 -28 19 -50 17 -17 -1 -38 3 -45 9 -21 17 -76 26 -84 13 -4 -7 -13
-5 -28 5 -26 18 -59 19 -75 3 -10 -10 -17 -10 -32 0 -27 16 -61 15 -87 -3 -15
-10 -24 -12 -28 -4 -10 16 -4 19 86 36 46 9 90 17 97 19 17 5 16 76 -2 119
-27 64 -90 72 -185 23z m-38 -675 c-13 -2 -23 -8 -23 -13 0 -4 -18 -17 -40
-29 l-40 -21 0 29 c0 33 13 38 85 38 22 0 30 -2 18 -4z m136 -30 c0 -25 -1
-26 -9 -8 -12 27 -12 35 0 35 6 0 10 -12 9 -27z m149 -24 c70 -34 82 -43 79
-62 -2 -12 -2 -16 0 -9 5 14 23 16 23 3 0 -5 -6 -16 -14 -23 -7 -8 -17 -25
-21 -38 -11 -37 -99 -200 -107 -200 -5 0 -8 6 -8 13 0 6 -19 66 -43 132 -35
100 -42 130 -39 178 5 68 1 68 130 6z m-171 4 c15 -33 17 -75 14 -303 -2 -253
-3 -266 -23 -282 -11 -10 -24 -18 -28 -18 -4 0 -10 60 -14 133 -9 183 -24 309
-46 394 l-18 72 22 -2 c11 -1 24 -6 27 -11 11 -14 31 4 24 22 -5 12 9 31 23
32 2 0 10 -17 19 -37z m-103 -143 c17 -117 35 -353 32 -415 -1 -22 -6 -48 -10
-58 -5 -9 -6 -27 -3 -38 9 -34 -10 -72 -33 -66 -18 5 -18 3 -4 -18 14 -22 13
-26 -12 -64 -15 -23 -31 -41 -36 -41 -5 0 -6 -5 -2 -12 5 -8 2 -9 -9 -5 -10 4
-17 1 -17 -5 0 -6 -3 -8 -6 -5 -4 4 -1 13 6 22 8 10 9 15 1 15 -7 0 -11 35
-11 111 0 85 3 109 13 103 10 -6 10 -4 0 7 -8 7 -13 39 -13 72 l0 58 61 -46
c33 -26 62 -45 64 -43 3 2 -25 26 -60 53 l-65 49 -2 55 -2 56 -3 -47 c-2 -27
-6 -48 -9 -48 -20 0 -123 97 -143 134 l-23 45 46 63 c74 102 85 113 99 99 7
-7 14 -53 17 -109 4 -94 5 -95 10 -34 l5 64 64 -172 c35 -94 65 -169 68 -167
2 2 -27 87 -65 188 -90 242 -89 240 -78 266 13 29 88 67 98 50 3 -7 13 -60 22
-117z m497 -27 c60 -65 89 -104 89 -121 0 -10 -36 -77 -81 -150 -60 -98 -84
-130 -93 -123 -7 6 -28 8 -47 5 -57 -8 -64 4 -64 103 0 87 0 87 -10 38 l-11
-49 -18 57 -18 58 38 75 c30 56 40 70 46 57 5 -13 7 -10 7 12 1 17 12 54 26
83 l25 54 37 -30 c21 -17 54 -48 74 -69z m-312 -70 l39 -110 -41 -86 c-23 -48
-46 -86 -51 -87 -4 0 -5 24 -2 53 3 28 7 118 8 200 0 81 2 146 4 144 2 -1 21
-53 43 -114z m-459 -72 c16 -30 12 -36 -10 -16 -21 19 -26 35 -10 35 5 0 14
-9 20 -19z m911 -44 c15 -23 36 -61 48 -84 l20 -41 -81 -66 c-44 -36 -89 -66
-98 -66 -9 0 -25 9 -34 19 -10 11 -26 21 -37 23 -16 3 -10 16 40 98 33 52 66
102 73 110 8 8 18 23 21 33 10 26 20 21 48 -26z m-380 -87 c18 -54 20 -73 11
-82 -9 -9 -12 -5 -12 19 0 18 -5 35 -11 38 -16 11 -28 51 -22 74 3 12 7 21 9
21 1 0 13 -32 25 -70z m-64 -34 c-3 -7 1 -25 8 -40 8 -14 12 -26 10 -26 -3 0
0 -11 5 -25 11 -28 8 -30 -20 -15 -16 8 -22 6 -32 -10 -17 -27 -25 -25 -32 6
-5 20 1 38 26 75 33 49 44 60 35 35z m532 -47 c16 -45 16 -44 -35 -64 -25 -9
-43 -19 -40 -22 2 -3 25 4 50 16 l46 20 25 -84 c27 -88 45 -172 50 -240 2 -23
7 -58 11 -79 7 -38 6 -39 -18 -33 -13 4 -42 14 -64 23 l-39 17 50 18 c28 9 45
18 39 18 -6 1 -31 -6 -54 -14 -53 -19 -50 -19 -50 9 0 18 15 35 57 65 32 23
53 41 48 41 -6 0 -28 -14 -49 -30 -52 -39 -64 -38 -71 8 -3 20 -12 48 -20 62
-8 14 -22 41 -31 60 -8 19 -26 43 -39 52 l-24 18 6 -37 c4 -24 3 -34 -4 -30
-15 9 -21 62 -9 73 6 5 27 17 46 27 19 10 27 15 17 12 -57 -16 -69 -17 -66 -6
5 13 139 130 151 131 3 0 11 -14 17 -31z m-349 -92 c0 -6 -9 -2 -20 8 -11 10
-20 23 -20 28 0 6 9 2 20 -8 11 -10 20 -23 20 -28z m31 30 c-1 -12 -15 -9 -19
4 -3 6 1 10 8 8 6 -3 11 -8 11 -12z m67 -32 c17 -38 14 -43 -8 -15 -21 27 -25
40 -12 40 5 0 14 -11 20 -25z m-43 5 c3 -5 1 -10 -4 -10 -6 0 -11 5 -11 10 0
6 2 10 4 10 3 0 8 -4 11 -10z m85 -20 c0 -5 -2 -10 -4 -10 -3 0 -8 5 -11 10
-3 6 -1 10 4 10 6 0 11 -4 11 -10z m-147 -26 c-15 -24 -17 -25 -24 -8 -9 25
-2 34 22 34 19 0 19 -1 2 -26z m66 15 c43 -15 39 -33 -10 -48 -23 -7 -48 -15
-56 -18 -11 -5 -10 4 6 36 12 22 23 41 25 41 2 0 17 -5 35 -11z m-105 -69 c-6
-6 -10 2 -11 23 -2 30 -1 31 9 9 7 -14 8 -26 2 -32z m206 40 c0 -5 -4 -10 -10
-10 -5 0 -10 5 -10 10 0 6 5 10 10 10 6 0 10 -4 10 -10z m-30 -4 c0 -3 -4 -8
-10 -11 -5 -3 -10 -1 -10 4 0 6 5 11 10 11 6 0 10 -2 10 -4z m-95 -51 c-32
-26 -45 -31 -45 -15 0 10 48 39 65 40 6 0 -3 -11 -20 -25z m70 -50 c-15 -53
-17 -55 -51 -55 -58 0 -56 26 6 83 30 27 56 45 58 38 2 -6 -4 -35 -13 -66z
m72 47 c11 -15 30 -47 42 -71 29 -55 18 -69 -37 -53 -22 7 -49 12 -62 12 -14
0 -20 5 -17 13 2 6 10 38 17 70 7 31 18 57 25 57 6 0 20 -13 32 -28z m63 -23
c0 -16 -4 -29 -10 -29 -5 0 -10 16 -10 36 0 21 4 33 10 29 6 -3 10 -19 10 -36z
m-400 -10 c0 -5 -4 -9 -10 -9 -5 0 -10 7 -10 16 0 8 5 12 10 9 6 -3 10 -10 10
-16z m10 -40 c0 -11 -4 -17 -10 -14 -5 3 -10 13 -10 21 0 8 5 14 10 14 6 0 10
-9 10 -21z m411 -42 c-8 -8 -11 -2 -11 19 0 40 14 54 18 19 2 -15 -1 -32 -7
-38z m-641 33 c0 -11 -7 -20 -15 -20 -13 0 -14 4 -5 20 6 11 13 20 15 20 3 0
5 -9 5 -20z m576 -74 c48 -22 72 -42 62 -51 -5 -5 -149 54 -162 66 -20 19 51
8 100 -15z m90 -23 c-10 -26 -18 -8 -9 23 5 21 8 24 11 11 2 -10 1 -25 -2 -34z
m-26 27 c0 -5 -4 -10 -10 -10 -5 0 -10 5 -10 10 0 6 5 10 10 10 6 0 10 -4 10
-10z m-730 -9 c0 -6 -4 -13 -10 -16 -5 -3 -10 1 -10 9 0 9 5 16 10 16 6 0 10
-4 10 -9z m645 -27 c67 -27 77 -37 49 -48 -9 -4 -14 -9 -11 -13 4 -3 13 0 22
7 9 7 19 10 22 6 11 -11 -20 -27 -41 -22 -11 3 -25 1 -31 -4 -7 -6 -25 10 -53
46 -23 30 -37 54 -32 54 5 0 39 -12 75 -26z m127 -36 c-7 -7 -12 -8 -12 -2 0
14 12 26 19 19 2 -3 -1 -11 -7 -17z m112 -58 l46 -19 0 -68 c0 -37 -3 -85 -6
-105 l-6 -37 -39 19 c-21 11 -42 20 -46 20 -4 -1 13 -12 40 -26 l47 -24 -6
-43 c-4 -23 -9 -47 -13 -53 -4 -8 -38 4 -101 33 -95 44 -95 44 -73 62 12 10
25 30 29 45 4 18 11 25 20 22 37 -15 46 -16 21 -1 -21 12 -27 21 -21 33 10 25
25 145 19 161 -6 16 21 10 89 -19z m-266 2 c2 -7 -3 -12 -12 -12 -9 0 -16 7
-16 16 0 17 22 14 28 -4z m113 -43 c-5 -88 -16 -91 -53 -15 l-27 54 32 10 c48
15 52 10 48 -49z m36 1 c-8 -12 -17 -17 -21 -12 -3 5 2 19 11 32 10 14 18 19
21 12 2 -6 -3 -21 -11 -32z m-111 -21 c22 -45 23 -51 7 -44 -10 4 -25 9 -34
12 -9 3 -22 17 -29 31 -10 22 -9 28 6 39 10 7 19 13 21 13 1 0 14 -23 29 -51z
m104 -54 c-7 -8 -16 -15 -21 -15 -15 0 -10 22 9 36 20 15 29 0 12 -21z m-490
9 c0 -8 -4 -12 -10 -9 -5 3 -10 10 -10 16 0 5 5 9 10 9 6 0 10 -7 10 -16z m40
12 c0 -11 -19 -15 -25 -6 -3 5 1 10 9 10 9 0 16 -2 16 -4z m260 -46 c0 -27 -4
-50 -9 -50 -27 0 -37 13 -33 43 5 48 10 57 27 57 11 0 15 -12 15 -50z m61 -20
c15 -39 22 -70 17 -70 -5 0 -23 7 -39 16 -20 10 -29 20 -25 30 3 9 6 33 6 55
0 21 3 39 8 39 4 0 19 -32 33 -70z m29 45 c23 -12 30 -22 30 -45 0 -32 14 -40
24 -15 7 18 39 20 34 3 -3 -7 -15 -18 -27 -24 -19 -10 -20 -12 -5 -18 13 -5
14 -9 4 -21 -22 -27 -41 -16 -64 38 -29 65 -39 97 -31 97 3 0 19 -7 35 -15z
m-523 -17 c-3 -8 -6 -5 -6 6 -1 11 2 17 5 13 3 -3 4 -12 1 -19z m192 8 c10
-12 7 -15 -18 -14 -17 1 -31 5 -31 10 0 5 5 6 10 3 6 -3 10 -1 10 4 0 15 15
14 29 -3z m-315 -12 c4 -10 1 -14 -6 -12 -15 5 -23 28 -10 28 5 0 13 -7 16
-16z m506 -19 c0 -8 -4 -15 -10 -15 -5 0 -10 7 -10 15 0 8 5 15 10 15 6 0 10
-7 10 -15z m-187 -40 c30 -51 31 -55 17 -55 -11 0 -70 77 -70 92 0 23 28 3 53
-37z m37 6 c21 -43 12 -65 -12 -28 -35 52 -40 67 -24 67 9 0 25 -18 36 -39z
m48 26 c27 1 27 -1 5 -27 -23 -27 -30 -25 -49 11 -15 30 -15 32 2 24 11 -5 29
-8 42 -8z m-373 -7 c4 -6 -6 -10 -22 -11 -27 -1 -26 -1 6 -9 30 -7 50 -24 51
-41 0 -8 -99 -149 -105 -149 -3 0 -5 17 -5 39 0 30 8 47 40 84 22 25 40 49 40
54 0 4 -16 -10 -35 -32 -34 -39 -34 -40 -35 -14 0 59 11 89 36 89 12 0 26 -4
29 -10z m225 -14 c0 -14 -4 -28 -10 -31 -6 -4 -10 7 -10 24 0 17 5 31 10 31 6
0 10 -11 10 -24z m-40 -5 c5 -11 10 -27 10 -37 0 -25 -30 3 -31 30 -1 17 -2
17 -6 4 -5 -22 -17 -23 -32 -4 -9 11 -9 15 1 19 27 11 48 6 58 -12z m275 -55
c-4 -33 -11 -65 -15 -69 -25 -27 -94 49 -71 77 6 7 7 17 3 21 -4 5 -2 5 4 2 6
-4 21 4 34 18 37 40 53 23 45 -49z m-405 45 c0 -6 -4 -13 -10 -16 -5 -3 -10 1
-10 9 0 9 5 16 10 16 6 0 10 -4 10 -9z m73 -10 c26 -14 27 -17 29 -105 l2 -91
3 83 c2 45 6 82 9 82 3 0 14 -5 24 -10 17 -9 19 -18 13 -73 -7 -71 -19 -101
-38 -94 -8 4 -11 -1 -8 -13 3 -10 1 -20 -4 -23 -10 -7 -26 22 -78 144 l-33 77
20 22 c11 11 23 20 26 18 4 -2 19 -10 35 -17z m371 13 c10 -4 16 -18 16 -39 0
-19 5 -37 10 -40 6 -4 10 7 10 24 0 38 14 39 63 6 37 -26 49 -55 23 -55 -13 0
-38 23 -33 31 1 2 -4 -3 -11 -11 -10 -12 -10 -17 4 -27 27 -19 6 -37 -22 -18
-24 16 -29 10 -18 -19 9 -24 41 -19 60 9 30 46 46 32 99 -86 28 -61 52 -115
53 -120 2 -5 -57 22 -132 62 -75 39 -136 68 -136 66 0 -3 62 -38 138 -77 75
-39 143 -77 150 -84 11 -11 8 -25 -21 -82 -20 -38 -51 -91 -70 -117 -39 -55
-38 -55 -86 41 -17 34 -34 62 -36 62 -3 0 13 -37 36 -81 28 -57 37 -85 30 -92
-7 -7 -17 3 -31 34 -22 46 -22 38 0 -23 13 -36 13 -36 -26 -72 -21 -20 -63
-53 -92 -73 -57 -40 -64 -38 -79 17 -3 14 -9 27 -13 30 -4 3 -29 49 -55 103
-26 54 -49 97 -51 94 -3 -2 21 -55 51 -117 43 -86 55 -121 53 -149 l-3 -36
-49 3 c-45 3 -151 35 -169 52 -10 8 8 356 20 388 8 20 12 15 43 -48 19 -40 38
-74 43 -77 4 -3 -12 35 -36 84 -33 66 -43 98 -42 128 1 22 0 28 -2 12 -5 -35
-23 -25 -23 12 0 32 25 61 33 39 3 -7 6 -1 6 13 1 28 65 109 86 109 7 0 18 -7
25 -15 7 -8 16 -12 21 -9 5 3 9 1 9 -4 0 -6 11 -13 25 -16 19 -5 37 -33 90
-138 36 -73 65 -138 65 -145 0 -7 7 -13 15 -13 10 0 -1 31 -40 111 -59 120
-64 139 -40 163 9 9 11 17 5 21 -5 3 -7 18 -5 33 2 15 7 53 10 85 4 31 8 57
10 57 2 0 10 -3 19 -6z m-574 -48 c0 -42 -6 -51 -97 -156 l-97 -112 -16 34
c-10 18 -30 70 -45 116 -28 83 -28 83 -8 103 13 14 51 25 124 38 148 27 139
28 139 -23z m345 -34 c-10 -10 -25 21 -24 48 1 23 2 22 15 -9 8 -18 12 -36 9
-39z m-139 -204 c-6 -9 -58 -78 -114 -153 -57 -75 -102 -138 -100 -140 2 -2
55 64 118 148 l113 151 11 -31 c6 -17 14 -35 18 -39 4 -4 4 -12 -2 -19 -5 -6
-14 -63 -20 -126 -13 -140 -17 -164 -36 -180 -8 -6 -14 -27 -14 -46 l0 -34
-45 32 c-25 18 -70 55 -100 84 -45 42 -55 57 -56 85 -1 30 -2 31 -8 11 -6 -23
-9 -21 -48 30 -22 30 -57 84 -77 120 l-36 66 81 94 c45 52 85 98 90 104 5 5 9
-10 9 -37 0 -40 -7 -54 -62 -124 -33 -44 -65 -85 -71 -91 -5 -7 -7 -13 -4 -13
3 0 29 30 58 68 29 37 59 74 67 82 7 8 41 55 74 104 l62 89 51 -109 c42 -87
50 -112 41 -126z m174 212 c0 -5 -4 -10 -10 -10 -5 0 -10 5 -10 10 0 6 5 10
10 10 6 0 10 -4 10 -10z m63 -11 c4 -16 3 -18 -9 -8 -16 13 -19 29 -5 29 5 0
11 -9 14 -21z m-103 -34 c0 -6 -11 -22 -25 -35 l-25 -23 0 29 c0 16 3 39 6 52
6 22 8 22 25 6 11 -9 19 -22 19 -29z m81 18 c22 -46 23 -49 6 -34 -10 7 -17
20 -17 27 0 17 -17 18 -23 2 -2 -7 -8 -10 -12 -6 -7 6 14 37 26 38 3 0 12 -12
20 -27z m422 -24 c98 -49 93 -33 50 -171 -13 -43 -27 -78 -31 -78 -7 1 -94
180 -127 262 -14 34 -14 37 3 33 10 -1 57 -22 105 -46z m-340 -29 c3 -11 1
-20 -4 -20 -5 0 -9 9 -9 20 0 11 2 20 4 20 2 0 6 -9 9 -20z m-165 -690 c50 -1
63 -3 50 -11 -30 -17 -116 -23 -133 -9 -20 16 -19 34 1 26 9 -3 46 -6 82 -6z
m-521 -132 c-3 -8 -6 -5 -6 6 -1 11 2 17 5 13 3 -3 4 -12 1 -19z m373 -118 c0
-5 -4 -10 -10 -10 -5 0 -10 5 -10 10 0 6 5 10 10 10 6 0 10 -4 10 -10z"/>
<path d="M4820 3440 c0 -5 5 -10 10 -10 6 0 10 5 10 10 0 6 -4 10 -10 10 -5 0
-10 -4 -10 -10z"/>
<path d="M4679 2865 c5 -11 17 -29 26 -40 l16 -20 -10 20 c-5 11 -17 29 -26
40 l-16 20 10 -20z"/>
<path d="M5072 3245 c0 -16 2 -22 5 -12 2 9 2 23 0 30 -3 6 -5 -1 -5 -18z"/>
<path d="M5062 3175 c0 -16 2 -22 5 -12 2 9 2 23 0 30 -3 6 -5 -1 -5 -18z"/>
<path d="M4910 3171 c0 -11 7 -26 15 -35 14 -13 14 -16 -1 -24 -11 -6 -13 -12
-6 -16 21 -13 34 32 20 64 -15 34 -28 39 -28 11z"/>
<path d="M5322 3120 c0 -14 2 -19 5 -12 2 6 2 18 0 25 -3 6 -5 1 -5 -13z"/>
<path d="M5312 3070 c0 -14 2 -19 5 -12 2 6 2 18 0 25 -3 6 -5 1 -5 -13z"/>
<path d="M5302 3020 c0 -14 2 -19 5 -12 2 6 2 18 0 25 -3 6 -5 1 -5 -13z"/>
<path d="M5291 2975 c-1 -11 -4 -31 -6 -45 l-6 -25 11 25 c6 13 9 33 7 45 -4
19 -4 19 -6 0z"/>
<path d="M5200 2201 c0 -6 4 -13 10 -16 6 -3 7 1 4 9 -7 18 -14 21 -14 7z"/>
<path d="M5193 2162 c13 -14 14 -21 5 -30 -16 -16 -7 -21 19 -11 l23 8 -26 26
c-28 29 -46 34 -21 7z"/>
<path d="M5133 1970 c0 -25 2 -35 4 -22 2 12 2 32 0 45 -2 12 -4 2 -4 -23z"/>
<path d="M5123 1875 c0 -27 2 -38 4 -22 2 15 2 37 0 50 -2 12 -4 0 -4 -28z"/>
<path d="M5240 1825 c0 -5 5 -17 10 -25 5 -8 10 -10 10 -5 0 6 -5 17 -10 25
-5 8 -10 11 -10 5z"/>
<path d="M5113 1765 c0 -27 2 -38 4 -22 2 15 2 37 0 50 -2 12 -4 0 -4 -28z"/>
<path d="M5260 1775 c0 -5 5 -17 10 -25 5 -8 10 -10 10 -5 0 6 -5 17 -10 25
-5 8 -10 11 -10 5z"/>
<path d="M5103 1640 c0 -36 2 -50 4 -32 2 17 2 47 0 65 -2 17 -4 3 -4 -33z"/>
<path d="M4614 1930 c0 -69 1 -97 3 -62 2 34 2 90 0 125 -2 34 -3 6 -3 -63z"/>
<path d="M3588 4143 c-6 -16 -12 -48 -12 -73 0 -38 -3 -46 -18 -46 -12 0 -17
5 -13 14 3 8 8 26 11 40 6 25 5 26 -11 10 -10 -9 -19 -30 -21 -48 -2 -17 -8
-39 -14 -48 -8 -14 -9 -13 -10 8 -1 24 -1 24 -15 6 -32 -42 -10 -156 30 -156
14 0 14 32 0 91 -9 34 15 44 43 18 22 -20 44 -27 25 -8 -8 8 -8 18 -1 35 9 18
15 21 29 14 15 -8 18 -6 16 12 0 13 -6 27 -12 31 -6 5 -3 7 7 5 22 -4 22 6 1
38 -9 14 -16 39 -16 55 0 36 -4 37 -19 2z"/>
<path d="M4345 4163 c-34 -5 -57 -21 -49 -34 3 -5 22 -2 42 7 36 15 66 36 47
33 -6 -1 -23 -4 -40 -6z"/>
<path d="M2857 4149 c-9 -6 -15 -14 -12 -20 4 -5 13 -2 22 6 19 20 14 27 -10
14z"/>
<path d="M2810 4115 c-11 -13 -10 -14 4 -9 9 3 16 10 16 15 0 13 -6 11 -20 -6z"/>
<path d="M4270 4110 c0 -5 5 -10 11 -10 5 0 7 5 4 10 -3 6 -8 10 -11 10 -2 0
-4 -4 -4 -10z"/>
<path d="M2700 4045 c-7 -9 -8 -15 -2 -15 5 0 12 7 16 15 3 8 4 15 2 15 -2 0
-9 -7 -16 -15z"/>
<path d="M2645 4005 c-16 -14 -25 -25 -20 -25 13 0 26 10 44 33 18 23 12 21
-24 -8z"/>
<path d="M2753 3984 c-23 -7 -62 -15 -85 -17 -88 -10 -195 -29 -248 -44 -98
-27 -227 -99 -341 -190 -98 -79 -128 -113 -98 -113 5 0 7 -5 3 -11 -4 -6 -20
-9 -38 -6 -23 4 -39 -1 -61 -19 -27 -21 -29 -26 -18 -53 10 -26 8 -32 -16 -55
-21 -20 -30 -23 -39 -14 -9 9 -12 7 -12 -11 0 -12 -4 -19 -10 -16 -5 3 -10 17
-10 31 0 14 -4 22 -10 19 -5 -3 -10 1 -10 10 0 13 -30 1 -127 -50 -71 -37
-132 -71 -137 -76 -6 -5 -5 -18 2 -33 10 -23 9 -26 -23 -36 -19 -6 -35 -16
-35 -21 0 -6 8 -5 20 1 11 6 24 8 29 5 5 -3 11 0 13 7 2 6 25 12 51 13 27 2
53 9 63 19 17 17 37 18 34 1 -1 -6 9 -13 22 -16 27 -7 70 25 62 46 -3 7 -1 16
5 19 7 5 9 -7 7 -33 l-4 -39 47 -6 c25 -3 116 -13 201 -21 85 -8 181 -17 213
-20 60 -6 73 -1 34 14 -20 8 -24 20 -35 109 -12 97 -55 291 -70 317 -5 11 -15
9 -46 -6 -22 -10 -41 -17 -43 -15 -6 5 136 110 192 142 28 15 53 32 56 37 4 6
14 7 23 4 9 -4 15 -2 13 4 -5 24 137 62 300 79 118 13 186 30 175 46 -5 7 -20
7 -49 -2z m-878 -513 c-3 -6 -11 -11 -17 -11 -6 0 -6 6 2 15 14 17 26 13 15
-4z m30 -64 c9 -30 12 -62 9 -72 -6 -15 -15 -9 -56 35 -27 29 -47 54 -46 55 8
7 64 34 70 35 4 0 14 -24 23 -53z m-75 -50 c0 -18 -2 -19 -10 -7 -13 20 -13
43 0 35 6 -3 10 -16 10 -28z m-20 -33 c0 -8 -4 -14 -10 -14 -5 0 -10 9 -10 21
0 11 5 17 10 14 6 -3 10 -13 10 -21z m47 -11 c-3 -10 -5 -4 -5 12 0 17 2 24 5
18 2 -7 2 -21 0 -30z"/>
<path d="M2830 3985 c-11 -13 -10 -14 4 -9 9 3 16 10 16 15 0 13 -6 11 -20 -6z"/>
<path d="M2880 3980 c-9 -6 -10 -10 -3 -10 6 0 15 5 18 10 8 12 4 12 -15 0z"/>
<path d="M3436 3941 c-4 -7 -5 -15 -2 -18 9 -9 19 4 14 18 -4 11 -6 11 -12 0z"/>
<path d="M3397 3880 c-20 -28 -21 -50 -6 -104 l11 -39 19 29 c11 18 16 37 12
49 -3 11 -9 36 -12 55 l-6 35 -18 -25z"/>
<path d="M1623 3820 c0 -30 2 -43 4 -27 2 15 2 39 0 55 -2 15 -4 2 -4 -28z"/>
<path d="M2447 3789 c-14 -8 -16 -14 -6 -25 15 -19 43 -18 36 0 -4 10 -1 13 9
9 7 -3 14 -1 14 5 0 5 -7 13 -16 16 -19 7 -15 8 -37 -5z"/>
<path d="M3312 3758 c-35 -42 -58 -168 -31 -168 5 0 7 -4 4 -10 -3 -5 -3 -15
1 -22 4 -6 14 7 25 33 13 33 22 43 35 41 15 -3 17 -1 7 9 -10 10 -9 16 3 30
15 16 15 20 -4 46 -10 15 -21 34 -23 42 -4 11 -7 11 -17 -1z m-2 -128 c-16
-30 -20 -25 -20 28 l1 47 15 -28 c11 -20 12 -32 4 -47z"/>
<path d="M1613 3700 c0 -30 2 -43 4 -27 2 15 2 39 0 55 -2 15 -4 2 -4 -28z"/>
<path d="M2560 3732 c0 -13 30 -37 31 -26 1 5 5 -2 9 -16 l8 -25 1 25 c0 14
-3 30 -7 35 -9 13 -42 18 -42 7z"/>
<path d="M3063 3722 c-8 -9 -13 -39 -13 -84 l0 -70 -29 7 c-63 14 -94 -37 -67
-112 8 -22 18 -67 22 -99 l7 -58 24 30 c13 16 26 41 30 57 3 15 11 27 18 27 6
0 33 31 60 70 35 51 45 73 38 82 -6 7 -8 28 -6 46 5 28 9 32 37 33 17 1 36 1
42 0 9 -1 54 68 54 82 0 1 -46 2 -102 2 -71 0 -106 -4 -115 -13z"/>
<path d="M4060 3734 c0 -4 12 -18 26 -31 18 -17 25 -19 20 -8 -3 9 -6 23 -6
31 0 8 -9 14 -20 14 -11 0 -20 -3 -20 -6z"/>
<path d="M2496 3715 c4 -8 10 -12 15 -9 14 8 10 24 -6 24 -9 0 -12 -6 -9 -15z"/>
<path d="M2575 3680 c-3 -5 -3 -16 2 -22 4 -7 6 -21 5 -30 -4 -20 5 -22 28 -8
12 8 11 13 -8 33 -12 13 -19 27 -15 30 3 4 4 7 0 7 -3 0 -9 -4 -12 -10z"/>
<path d="M2528 3671 c-12 -4 -15 -10 -8 -21 7 -11 12 -12 21 -3 16 16 8 32
-13 24z"/>
<path d="M1530 3657 c0 -13 42 -118 46 -115 2 2 -6 29 -17 59 -20 52 -29 70
-29 56z"/>
<path d="M4081 3653 c-1 -6 3 -14 8 -17 5 -3 7 -16 3 -28 -3 -15 -2 -19 7 -14
6 4 19 2 27 -5 12 -10 13 -9 8 5 -3 9 -10 16 -14 16 -4 0 -5 12 -2 28 5 24 3
25 -10 14 -13 -10 -17 -10 -21 0 -4 9 -6 9 -6 1z"/>
<path d="M3231 3608 c-11 -29 -14 -31 -20 -14 -6 16 -10 14 -24 -17 -9 -19
-17 -42 -17 -50 0 -26 21 -75 35 -81 9 -3 12 0 9 8 -3 8 -1 17 5 21 6 3 11 1
11 -6 0 -7 2 -10 5 -7 3 3 -1 23 -9 46 -14 39 -14 42 10 67 13 14 24 35 24 46
0 29 -14 23 -29 -13z"/>
<path d="M1603 3595 c0 -22 2 -30 4 -17 2 12 2 30 0 40 -3 9 -5 -1 -4 -23z"/>
<path d="M2613 3587 c6 -15 3 -17 -13 -12 -12 4 -20 2 -20 -5 0 -7 9 -14 19
-17 11 -3 22 -14 24 -25 5 -16 2 -19 -14 -15 -12 3 -19 0 -19 -9 0 -8 5 -14
11 -14 6 0 8 -9 4 -21 -9 -28 2 -69 20 -69 20 0 30 -21 14 -30 -7 -5 -17 -6
-21 -4 -12 8 -9 -11 4 -24 8 -8 15 -9 25 -1 20 18 16 44 -14 80 -22 26 -24 32
-9 26 18 -7 19 -3 12 65 -4 40 -12 77 -18 83 -8 7 -9 5 -5 -8z"/>
<path d="M4112 3542 c2 -9 11 -18 22 -20 12 -3 17 1 14 14 -1 9 -11 18 -21 20
-12 2 -17 -3 -15 -14z"/>
<path d="M4120 3490 c0 -5 5 -10 11 -10 5 0 7 5 4 10 -3 6 -8 10 -11 10 -2 0
-4 -4 -4 -10z"/>
<path d="M3376 3398 l-66 -93 45 -9 c63 -12 75 1 75 80 0 34 4 74 10 88 5 14
8 26 6 26 -2 0 -33 -42 -70 -92z"/>
<path d="M4134 3443 c3 -8 6 -17 6 -19 0 -2 7 -4 15 -4 18 0 20 -17 3 -23 -10
-4 -10 -7 0 -18 19 -20 31 1 21 37 -6 19 -17 34 -30 37 -15 4 -19 2 -15 -10z"/>
<path d="M4203 3333 c-15 -5 -17 -29 -4 -37 5 -3 11 5 13 19 3 14 5 25 4 24 0
0 -7 -3 -13 -6z"/>
<path d="M2636 3314 c-19 -14 -19 -14 4 -39 13 -14 28 -25 34 -25 6 0 2 7 -9
16 -16 12 -17 16 -6 23 9 6 10 14 5 24 -8 13 -12 14 -28 1z"/>
<path d="M3091 3304 c0 -11 3 -14 6 -6 3 7 2 16 -1 19 -3 4 -6 -2 -5 -13z"/>
<path d="M1381 3296 c-1 -12 -6 -16 -17 -12 -9 4 -22 1 -30 -5 -7 -6 -32 -20
-56 -32 -41 -21 -43 -25 -52 -79 -7 -48 -5 -62 11 -90 20 -35 38 -42 136 -52
l67 -8 0 60 c0 33 -6 75 -14 93 -13 30 -12 34 8 50 l21 18 -25 10 c-14 5 -19
10 -12 10 6 1 12 6 12 11 0 7 -6 7 -19 0 -17 -9 -20 -6 -24 18 -2 15 -5 19 -6
8z m23 -102 c3 -8 2 -12 -4 -9 -6 3 -10 10 -10 16 0 14 7 11 14 -7z"/>
<path d="M1450 3190 c0 -5 10 -10 23 -10 18 0 19 2 7 10 -19 13 -30 13 -30 0z"/>
<path d="M1177 3083 c-11 -10 -8 -53 3 -53 6 0 10 14 10 30 0 31 -2 35 -13 23z"/>
<path d="M3059 2960 c-46 -63 -56 -82 -51 -106 3 -16 6 -54 7 -84 1 -52 3 -55
32 -64 48 -13 82 0 98 38 12 28 12 40 -1 87 -9 30 -18 88 -22 130 l-7 76 -56
-77z"/>
<path d="M2981 2696 c-7 -8 -34 -17 -62 -21 -33 -5 -49 -12 -49 -21 0 -26 27
-26 67 -1 35 22 72 57 60 57 -2 0 -10 -6 -16 -14z"/>
<path d="M4523 2363 c9 -2 25 -2 35 0 9 3 1 5 -18 5 -19 0 -27 -2 -17 -5z"/>
</g>
</svg>
